<?xml version="1.0" encoding="utf-8" standalone="no"?>
<!DOCTYPE svg PUBLIC "-//W3C//DTD SVG 1.1//EN"
  "http://www.w3.org/Graphics/SVG/1.1/DTD/svg11.dtd">
<svg xmlns:xlink="http://www.w3.org/1999/xlink" width="216pt" height="216pt" viewBox="0 0 216 216" xmlns="http://www.w3.org/2000/svg" version="1.1">
 <metadata>
  <rdf:RDF xmlns:dc="http://purl.org/dc/elements/1.1/" xmlns:cc="http://creativecommons.org/ns#" xmlns:rdf="http://www.w3.org/1999/02/22-rdf-syntax-ns#">
   <cc:Work>
    <dc:type rdf:resource="http://purl.org/dc/dcmitype/StillImage"/>
    <dc:date>2025-10-02T23:36:04.531567</dc:date>
    <dc:format>image/svg+xml</dc:format>
    <dc:creator>
     <cc:Agent>
      <dc:title>Matplotlib v3.8.3, https://matplotlib.org/</dc:title>
     </cc:Agent>
    </dc:creator>
   </cc:Work>
  </rdf:RDF>
 </metadata>
 <defs>
  <style type="text/css">*{stroke-linejoin: round; stroke-linecap: butt}</style>
 </defs>
 <g id="figure_1">
  <g id="patch_1">
   <path d="M 0 216 
L 216 216 
L 216 0 
L 0 0 
z
" style="fill: #ffffff"/>
  </g>
  <g id="axes_1">
   <g id="patch_2">
    <path d="M 54.9875 170.43625 
L 201.615341 170.43625 
L 201.615341 14.04 
L 54.9875 14.04 
z
" style="fill: #eaeaf2"/>
   </g>
   <g id="matplotlib.axis_1">
    <g id="xtick_1">
     <g id="line2d_1">
      <path d="M 61.652402 170.43625 
L 61.652402 14.04 
" clip-path="url(#pe048199266)" style="fill: none; stroke: #ffffff; stroke-linecap: round"/>
     </g>
     <g id="line2d_2"/>
     <g id="text_1">
      <!-- -5.0 -->
      <g transform="translate(52.010996 185.034688) scale(0.1 -0.1)">
       <defs>
        <path id="DejaVuSerif-2d" d="M 281 1959 
L 1881 1959 
L 1881 1472 
L 281 1472 
L 281 1959 
z
" transform="scale(0.015625)"/>
        <path id="DejaVuSerif-35" d="M 3219 4666 
L 3219 4153 
L 1081 4153 
L 1081 2816 
Q 1244 2928 1461 2984 
Q 1678 3041 1947 3041 
Q 2703 3041 3140 2622 
Q 3578 2203 3578 1478 
Q 3578 738 3136 323 
Q 2694 -91 1894 -91 
Q 1572 -91 1234 -12 
Q 897 66 544 225 
L 544 1131 
L 897 1131 
Q 925 688 1179 453 
Q 1434 219 1894 219 
Q 2388 219 2653 544 
Q 2919 869 2919 1478 
Q 2919 2084 2655 2407 
Q 2391 2731 1894 2731 
Q 1613 2731 1398 2631 
Q 1184 2531 1019 2322 
L 750 2322 
L 750 4666 
L 3219 4666 
z
" transform="scale(0.015625)"/>
        <path id="DejaVuSerif-2e" d="M 603 325 
Q 603 500 722 622 
Q 841 744 1019 744 
Q 1191 744 1312 622 
Q 1434 500 1434 325 
Q 1434 153 1312 31 
Q 1191 -91 1019 -91 
Q 841 -91 722 29 
Q 603 150 603 325 
z
" transform="scale(0.015625)"/>
        <path id="DejaVuSerif-30" d="M 2034 219 
Q 2513 219 2750 744 
Q 2988 1269 2988 2328 
Q 2988 3391 2750 3916 
Q 2513 4441 2034 4441 
Q 1556 4441 1318 3916 
Q 1081 3391 1081 2328 
Q 1081 1269 1318 744 
Q 1556 219 2034 219 
z
M 2034 -91 
Q 1275 -91 848 546 
Q 422 1184 422 2328 
Q 422 3475 848 4112 
Q 1275 4750 2034 4750 
Q 2797 4750 3222 4112 
Q 3647 3475 3647 2328 
Q 3647 1184 3222 546 
Q 2797 -91 2034 -91 
z
" transform="scale(0.015625)"/>
       </defs>
       <use xlink:href="#DejaVuSerif-2d"/>
       <use xlink:href="#DejaVuSerif-35" x="33.789062"/>
       <use xlink:href="#DejaVuSerif-2e" x="97.412109"/>
       <use xlink:href="#DejaVuSerif-30" x="129.199219"/>
      </g>
     </g>
    </g>
    <g id="xtick_2">
     <g id="line2d_3">
      <path d="M 74.982206 170.43625 
L 74.982206 14.04 
" clip-path="url(#pe048199266)" style="fill: none; stroke: #ffffff; stroke-linecap: round"/>
     </g>
     <g id="line2d_4"/>
     <g id="text_2">
      <!-- -4.0 -->
      <g transform="translate(65.340799 185.034688) scale(0.1 -0.1)">
       <defs>
        <path id="DejaVuSerif-34" d="M 2234 1581 
L 2234 4063 
L 641 1581 
L 2234 1581 
z
M 3609 0 
L 1484 0 
L 1484 331 
L 2234 331 
L 2234 1247 
L 197 1247 
L 197 1588 
L 2241 4750 
L 2859 4750 
L 2859 1581 
L 3750 1581 
L 3750 1247 
L 2859 1247 
L 2859 331 
L 3609 331 
L 3609 0 
z
" transform="scale(0.015625)"/>
       </defs>
       <use xlink:href="#DejaVuSerif-2d"/>
       <use xlink:href="#DejaVuSerif-34" x="33.789062"/>
       <use xlink:href="#DejaVuSerif-2e" x="97.412109"/>
       <use xlink:href="#DejaVuSerif-30" x="129.199219"/>
      </g>
     </g>
    </g>
    <g id="xtick_3">
     <g id="line2d_5">
      <path d="M 88.312009 170.43625 
L 88.312009 14.04 
" clip-path="url(#pe048199266)" style="fill: none; stroke: #ffffff; stroke-linecap: round"/>
     </g>
     <g id="line2d_6"/>
     <g id="text_3">
      <!-- -3.0 -->
      <g transform="translate(78.670603 185.034688) scale(0.1 -0.1)">
       <defs>
        <path id="DejaVuSerif-33" d="M 622 4469 
Q 988 4606 1323 4678 
Q 1659 4750 1953 4750 
Q 2638 4750 3022 4454 
Q 3406 4159 3406 3634 
Q 3406 3213 3140 2930 
Q 2875 2647 2388 2547 
Q 2963 2466 3280 2130 
Q 3597 1794 3597 1259 
Q 3597 606 3158 257 
Q 2719 -91 1894 -91 
Q 1528 -91 1179 -12 
Q 831 66 488 225 
L 488 1131 
L 838 1131 
Q 869 681 1141 450 
Q 1413 219 1906 219 
Q 2384 219 2661 495 
Q 2938 772 2938 1253 
Q 2938 1803 2653 2086 
Q 2369 2369 1819 2369 
L 1522 2369 
L 1522 2688 
L 1678 2688 
Q 2225 2688 2498 2914 
Q 2772 3141 2772 3597 
Q 2772 4006 2547 4223 
Q 2322 4441 1900 4441 
Q 1478 4441 1245 4241 
Q 1013 4041 972 3647 
L 622 3647 
L 622 4469 
z
" transform="scale(0.015625)"/>
       </defs>
       <use xlink:href="#DejaVuSerif-2d"/>
       <use xlink:href="#DejaVuSerif-33" x="33.789062"/>
       <use xlink:href="#DejaVuSerif-2e" x="97.412109"/>
       <use xlink:href="#DejaVuSerif-30" x="129.199219"/>
      </g>
     </g>
    </g>
    <g id="xtick_4">
     <g id="line2d_7">
      <path d="M 101.641813 170.43625 
L 101.641813 14.04 
" clip-path="url(#pe048199266)" style="fill: none; stroke: #ffffff; stroke-linecap: round"/>
     </g>
     <g id="line2d_8"/>
     <g id="text_4">
      <!-- -2.0 -->
      <g transform="translate(92.000407 185.034688) scale(0.1 -0.1)">
       <defs>
        <path id="DejaVuSerif-32" d="M 819 3553 
L 469 3553 
L 469 4384 
Q 803 4563 1142 4656 
Q 1481 4750 1806 4750 
Q 2534 4750 2956 4397 
Q 3378 4044 3378 3438 
Q 3378 2753 2422 1800 
Q 2347 1728 2309 1691 
L 1131 513 
L 3078 513 
L 3078 1088 
L 3444 1088 
L 3444 0 
L 434 0 
L 434 341 
L 1850 1753 
Q 2319 2222 2519 2614 
Q 2719 3006 2719 3438 
Q 2719 3909 2473 4175 
Q 2228 4441 1797 4441 
Q 1350 4441 1106 4219 
Q 863 3997 819 3553 
z
" transform="scale(0.015625)"/>
       </defs>
       <use xlink:href="#DejaVuSerif-2d"/>
       <use xlink:href="#DejaVuSerif-32" x="33.789062"/>
       <use xlink:href="#DejaVuSerif-2e" x="97.412109"/>
       <use xlink:href="#DejaVuSerif-30" x="129.199219"/>
      </g>
     </g>
    </g>
    <g id="xtick_5">
     <g id="line2d_9">
      <path d="M 114.971617 170.43625 
L 114.971617 14.04 
" clip-path="url(#pe048199266)" style="fill: none; stroke: #ffffff; stroke-linecap: round"/>
     </g>
     <g id="line2d_10"/>
     <g id="text_5">
      <!-- -1.0 -->
      <g transform="translate(105.33021 185.034688) scale(0.1 -0.1)">
       <defs>
        <path id="DejaVuSerif-31" d="M 909 0 
L 909 331 
L 1722 331 
L 1722 4213 
L 781 3603 
L 781 4013 
L 1919 4750 
L 2350 4750 
L 2350 331 
L 3163 331 
L 3163 0 
L 909 0 
z
" transform="scale(0.015625)"/>
       </defs>
       <use xlink:href="#DejaVuSerif-2d"/>
       <use xlink:href="#DejaVuSerif-31" x="33.789062"/>
       <use xlink:href="#DejaVuSerif-2e" x="97.412109"/>
       <use xlink:href="#DejaVuSerif-30" x="129.199219"/>
      </g>
     </g>
    </g>
    <g id="xtick_6">
     <g id="line2d_11">
      <path d="M 128.30142 170.43625 
L 128.30142 14.04 
" clip-path="url(#pe048199266)" style="fill: none; stroke: #ffffff; stroke-linecap: round"/>
     </g>
     <g id="line2d_12"/>
     <g id="text_6">
      <!-- 0.0 -->
      <g transform="translate(120.349858 185.034688) scale(0.1 -0.1)">
       <use xlink:href="#DejaVuSerif-30"/>
       <use xlink:href="#DejaVuSerif-2e" x="63.623047"/>
       <use xlink:href="#DejaVuSerif-30" x="95.410156"/>
      </g>
     </g>
    </g>
    <g id="xtick_7">
     <g id="line2d_13">
      <path d="M 141.631224 170.43625 
L 141.631224 14.04 
" clip-path="url(#pe048199266)" style="fill: none; stroke: #ffffff; stroke-linecap: round"/>
     </g>
     <g id="line2d_14"/>
     <g id="text_7">
      <!-- 1.0 -->
      <g transform="translate(133.679662 185.034688) scale(0.1 -0.1)">
       <use xlink:href="#DejaVuSerif-31"/>
       <use xlink:href="#DejaVuSerif-2e" x="63.623047"/>
       <use xlink:href="#DejaVuSerif-30" x="95.410156"/>
      </g>
     </g>
    </g>
    <g id="xtick_8">
     <g id="line2d_15">
      <path d="M 154.961028 170.43625 
L 154.961028 14.04 
" clip-path="url(#pe048199266)" style="fill: none; stroke: #ffffff; stroke-linecap: round"/>
     </g>
     <g id="line2d_16"/>
     <g id="text_8">
      <!-- 2.0 -->
      <g transform="translate(147.009465 185.034688) scale(0.1 -0.1)">
       <use xlink:href="#DejaVuSerif-32"/>
       <use xlink:href="#DejaVuSerif-2e" x="63.623047"/>
       <use xlink:href="#DejaVuSerif-30" x="95.410156"/>
      </g>
     </g>
    </g>
    <g id="xtick_9">
     <g id="line2d_17">
      <path d="M 168.290832 170.43625 
L 168.290832 14.04 
" clip-path="url(#pe048199266)" style="fill: none; stroke: #ffffff; stroke-linecap: round"/>
     </g>
     <g id="line2d_18"/>
     <g id="text_9">
      <!-- 3.0 -->
      <g transform="translate(160.339269 185.034688) scale(0.1 -0.1)">
       <use xlink:href="#DejaVuSerif-33"/>
       <use xlink:href="#DejaVuSerif-2e" x="63.623047"/>
       <use xlink:href="#DejaVuSerif-30" x="95.410156"/>
      </g>
     </g>
    </g>
    <g id="xtick_10">
     <g id="line2d_19">
      <path d="M 181.620635 170.43625 
L 181.620635 14.04 
" clip-path="url(#pe048199266)" style="fill: none; stroke: #ffffff; stroke-linecap: round"/>
     </g>
     <g id="line2d_20"/>
     <g id="text_10">
      <!-- 4.0 -->
      <g transform="translate(173.669073 185.034688) scale(0.1 -0.1)">
       <use xlink:href="#DejaVuSerif-34"/>
       <use xlink:href="#DejaVuSerif-2e" x="63.623047"/>
       <use xlink:href="#DejaVuSerif-30" x="95.410156"/>
      </g>
     </g>
    </g>
    <g id="xtick_11">
     <g id="line2d_21">
      <path d="M 194.950439 170.43625 
L 194.950439 14.04 
" clip-path="url(#pe048199266)" style="fill: none; stroke: #ffffff; stroke-linecap: round"/>
     </g>
     <g id="line2d_22"/>
     <g id="text_11">
      <!-- 5.0 -->
      <g transform="translate(186.998877 185.034688) scale(0.1 -0.1)">
       <use xlink:href="#DejaVuSerif-35"/>
       <use xlink:href="#DejaVuSerif-2e" x="63.623047"/>
       <use xlink:href="#DejaVuSerif-30" x="95.410156"/>
      </g>
     </g>
    </g>
    <g id="text_12">
     <!-- Steering vector multiplier -->
     <g transform="translate(55.862983 199.472656) scale(0.11 -0.11)">
      <defs>
       <path id="DejaVuSerif-53" d="M 594 225 
L 594 1288 
L 953 1284 
Q 969 753 1261 498 
Q 1553 244 2150 244 
Q 2706 244 2998 464 
Q 3291 684 3291 1106 
Q 3291 1444 3114 1625 
Q 2938 1806 2369 1978 
L 1753 2163 
Q 1084 2366 811 2669 
Q 538 2972 538 3500 
Q 538 4094 959 4422 
Q 1381 4750 2144 4750 
Q 2469 4750 2856 4679 
Q 3244 4609 3681 4475 
L 3681 3481 
L 3328 3481 
Q 3275 3975 2998 4195 
Q 2722 4416 2156 4416 
Q 1663 4416 1405 4214 
Q 1147 4013 1147 3628 
Q 1147 3294 1340 3103 
Q 1534 2913 2163 2725 
L 2741 2553 
Q 3375 2363 3645 2067 
Q 3916 1772 3916 1275 
Q 3916 597 3481 253 
Q 3047 -91 2188 -91 
Q 1803 -91 1404 -12 
Q 1006 66 594 225 
z
" transform="scale(0.015625)"/>
       <path id="DejaVuSerif-74" d="M 691 2988 
L 184 2988 
L 184 3322 
L 691 3322 
L 691 4353 
L 1269 4353 
L 1269 3322 
L 2350 3322 
L 2350 2988 
L 1269 2988 
L 1269 878 
Q 1269 456 1350 337 
Q 1431 219 1650 219 
Q 1875 219 1978 351 
Q 2081 484 2088 781 
L 2522 781 
Q 2497 328 2275 118 
Q 2053 -91 1600 -91 
Q 1103 -91 897 129 
Q 691 350 691 878 
L 691 2988 
z
" transform="scale(0.015625)"/>
       <path id="DejaVuSerif-65" d="M 3469 1600 
L 991 1600 
L 991 1575 
Q 991 903 1244 561 
Q 1497 219 1991 219 
Q 2369 219 2611 417 
Q 2853 616 2950 1006 
L 3413 1006 
Q 3275 459 2904 184 
Q 2534 -91 1931 -91 
Q 1203 -91 761 389 
Q 319 869 319 1663 
Q 319 2450 753 2931 
Q 1188 3413 1894 3413 
Q 2647 3413 3050 2948 
Q 3453 2484 3469 1600 
z
M 2791 1931 
Q 2772 2513 2545 2808 
Q 2319 3103 1894 3103 
Q 1497 3103 1269 2806 
Q 1041 2509 991 1931 
L 2791 1931 
z
" transform="scale(0.015625)"/>
       <path id="DejaVuSerif-72" d="M 3059 3328 
L 3059 2497 
L 2728 2497 
Q 2713 2744 2591 2866 
Q 2469 2988 2234 2988 
Q 1809 2988 1582 2694 
Q 1356 2400 1356 1850 
L 1356 331 
L 2022 331 
L 2022 0 
L 263 0 
L 263 331 
L 781 331 
L 781 2994 
L 231 2994 
L 231 3322 
L 1356 3322 
L 1356 2731 
Q 1525 3078 1790 3245 
Q 2056 3413 2438 3413 
Q 2578 3413 2733 3391 
Q 2888 3369 3059 3328 
z
" transform="scale(0.015625)"/>
       <path id="DejaVuSerif-69" d="M 622 4353 
Q 622 4497 726 4603 
Q 831 4709 978 4709 
Q 1122 4709 1226 4603 
Q 1331 4497 1331 4353 
Q 1331 4206 1228 4103 
Q 1125 4000 978 4000 
Q 831 4000 726 4103 
Q 622 4206 622 4353 
z
M 1356 331 
L 1900 331 
L 1900 0 
L 231 0 
L 231 331 
L 781 331 
L 781 2988 
L 231 2988 
L 231 3322 
L 1356 3322 
L 1356 331 
z
" transform="scale(0.015625)"/>
       <path id="DejaVuSerif-6e" d="M 263 0 
L 263 331 
L 781 331 
L 781 2988 
L 231 2988 
L 231 3322 
L 1356 3322 
L 1356 2731 
Q 1516 3069 1770 3241 
Q 2025 3413 2363 3413 
Q 2913 3413 3172 3097 
Q 3431 2781 3431 2113 
L 3431 331 
L 3944 331 
L 3944 0 
L 2356 0 
L 2356 331 
L 2853 331 
L 2853 1931 
Q 2853 2541 2703 2767 
Q 2553 2994 2175 2994 
Q 1775 2994 1565 2701 
Q 1356 2409 1356 1850 
L 1356 331 
L 1856 331 
L 1856 0 
L 263 0 
z
" transform="scale(0.015625)"/>
       <path id="DejaVuSerif-67" d="M 3359 2988 
L 3359 72 
Q 3359 -644 2965 -1033 
Q 2572 -1422 1844 -1422 
Q 1516 -1422 1216 -1362 
Q 916 -1303 641 -1184 
L 641 -488 
L 941 -488 
Q 997 -813 1206 -963 
Q 1416 -1113 1806 -1113 
Q 2313 -1113 2548 -827 
Q 2784 -541 2784 72 
L 2784 519 
Q 2616 206 2355 57 
Q 2094 -91 1709 -91 
Q 1097 -91 708 395 
Q 319 881 319 1663 
Q 319 2444 706 2928 
Q 1094 3413 1709 3413 
Q 2094 3413 2355 3264 
Q 2616 3116 2784 2803 
L 2784 3322 
L 3909 3322 
L 3909 2988 
L 3359 2988 
z
M 2784 1825 
Q 2784 2422 2554 2737 
Q 2325 3053 1888 3053 
Q 1444 3053 1217 2703 
Q 991 2353 991 1663 
Q 991 975 1217 622 
Q 1444 269 1888 269 
Q 2325 269 2554 583 
Q 2784 897 2784 1497 
L 2784 1825 
z
" transform="scale(0.015625)"/>
       <path id="DejaVuSerif-20" transform="scale(0.015625)"/>
       <path id="DejaVuSerif-76" d="M 1581 0 
L 359 2988 
L -19 2988 
L -19 3322 
L 1509 3322 
L 1509 2988 
L 978 2988 
L 1913 703 
L 2847 2988 
L 2350 2988 
L 2350 3322 
L 3597 3322 
L 3597 2988 
L 3225 2988 
L 2003 0 
L 1581 0 
z
" transform="scale(0.015625)"/>
       <path id="DejaVuSerif-63" d="M 3291 997 
Q 3169 466 2822 187 
Q 2475 -91 1925 -91 
Q 1200 -91 759 389 
Q 319 869 319 1663 
Q 319 2459 759 2936 
Q 1200 3413 1925 3413 
Q 2241 3413 2553 3339 
Q 2866 3266 3181 3116 
L 3181 2266 
L 2847 2266 
Q 2781 2703 2561 2903 
Q 2341 3103 1931 3103 
Q 1466 3103 1228 2742 
Q 991 2381 991 1663 
Q 991 944 1227 581 
Q 1463 219 1931 219 
Q 2303 219 2525 412 
Q 2747 606 2828 997 
L 3291 997 
z
" transform="scale(0.015625)"/>
       <path id="DejaVuSerif-6f" d="M 1925 219 
Q 2388 219 2623 584 
Q 2859 950 2859 1663 
Q 2859 2375 2623 2739 
Q 2388 3103 1925 3103 
Q 1463 3103 1227 2739 
Q 991 2375 991 1663 
Q 991 950 1228 584 
Q 1466 219 1925 219 
z
M 1925 -91 
Q 1200 -91 759 389 
Q 319 869 319 1663 
Q 319 2456 758 2934 
Q 1197 3413 1925 3413 
Q 2653 3413 3092 2934 
Q 3531 2456 3531 1663 
Q 3531 869 3092 389 
Q 2653 -91 1925 -91 
z
" transform="scale(0.015625)"/>
       <path id="DejaVuSerif-6d" d="M 3316 2675 
Q 3481 3041 3739 3227 
Q 3997 3413 4341 3413 
Q 4863 3413 5119 3089 
Q 5375 2766 5375 2113 
L 5375 331 
L 5894 331 
L 5894 0 
L 4300 0 
L 4300 331 
L 4800 331 
L 4800 2047 
Q 4800 2556 4650 2772 
Q 4500 2988 4153 2988 
Q 3769 2988 3567 2697 
Q 3366 2406 3366 1850 
L 3366 331 
L 3866 331 
L 3866 0 
L 2291 0 
L 2291 331 
L 2791 331 
L 2791 2069 
Q 2791 2566 2641 2777 
Q 2491 2988 2144 2988 
Q 1759 2988 1557 2697 
Q 1356 2406 1356 1850 
L 1356 331 
L 1856 331 
L 1856 0 
L 263 0 
L 263 331 
L 781 331 
L 781 2994 
L 231 2994 
L 231 3322 
L 1356 3322 
L 1356 2731 
Q 1516 3063 1762 3238 
Q 2009 3413 2322 3413 
Q 2709 3413 2968 3220 
Q 3228 3028 3316 2675 
z
" transform="scale(0.015625)"/>
       <path id="DejaVuSerif-75" d="M 2266 3322 
L 3341 3322 
L 3341 331 
L 3884 331 
L 3884 0 
L 2766 0 
L 2766 588 
Q 2606 256 2353 82 
Q 2100 -91 1766 -91 
Q 1213 -91 952 223 
Q 691 538 691 1209 
L 691 2988 
L 172 2988 
L 172 3322 
L 1269 3322 
L 1269 1388 
Q 1269 781 1417 556 
Q 1566 331 1947 331 
Q 2347 331 2556 625 
Q 2766 919 2766 1478 
L 2766 2988 
L 2266 2988 
L 2266 3322 
z
" transform="scale(0.015625)"/>
       <path id="DejaVuSerif-6c" d="M 1313 331 
L 1856 331 
L 1856 0 
L 184 0 
L 184 331 
L 738 331 
L 738 4531 
L 184 4531 
L 184 4863 
L 1313 4863 
L 1313 331 
z
" transform="scale(0.015625)"/>
       <path id="DejaVuSerif-70" d="M 1313 1825 
L 1313 1497 
Q 1313 897 1542 583 
Q 1772 269 2209 269 
Q 2650 269 2876 622 
Q 3103 975 3103 1663 
Q 3103 2353 2876 2703 
Q 2650 3053 2209 3053 
Q 1772 3053 1542 2737 
Q 1313 2422 1313 1825 
z
M 738 2988 
L 184 2988 
L 184 3322 
L 1313 3322 
L 1313 2803 
Q 1481 3116 1742 3264 
Q 2003 3413 2388 3413 
Q 3000 3413 3387 2928 
Q 3775 2444 3775 1663 
Q 3775 881 3387 395 
Q 3000 -91 2388 -91 
Q 2003 -91 1742 57 
Q 1481 206 1313 519 
L 1313 -997 
L 1856 -997 
L 1856 -1331 
L 184 -1331 
L 184 -997 
L 738 -997 
L 738 2988 
z
" transform="scale(0.015625)"/>
      </defs>
      <use xlink:href="#DejaVuSerif-53"/>
      <use xlink:href="#DejaVuSerif-74" x="68.505859"/>
      <use xlink:href="#DejaVuSerif-65" x="108.691406"/>
      <use xlink:href="#DejaVuSerif-65" x="167.871094"/>
      <use xlink:href="#DejaVuSerif-72" x="227.050781"/>
      <use xlink:href="#DejaVuSerif-69" x="274.853516"/>
      <use xlink:href="#DejaVuSerif-6e" x="306.835938"/>
      <use xlink:href="#DejaVuSerif-67" x="371.240234"/>
      <use xlink:href="#DejaVuSerif-20" x="435.253906"/>
      <use xlink:href="#DejaVuSerif-76" x="467.041016"/>
      <use xlink:href="#DejaVuSerif-65" x="523.535156"/>
      <use xlink:href="#DejaVuSerif-63" x="582.714844"/>
      <use xlink:href="#DejaVuSerif-74" x="638.720703"/>
      <use xlink:href="#DejaVuSerif-6f" x="678.90625"/>
      <use xlink:href="#DejaVuSerif-72" x="739.111328"/>
      <use xlink:href="#DejaVuSerif-20" x="786.914062"/>
      <use xlink:href="#DejaVuSerif-6d" x="818.701172"/>
      <use xlink:href="#DejaVuSerif-75" x="913.525391"/>
      <use xlink:href="#DejaVuSerif-6c" x="977.929688"/>
      <use xlink:href="#DejaVuSerif-74" x="1009.912109"/>
      <use xlink:href="#DejaVuSerif-69" x="1050.097656"/>
      <use xlink:href="#DejaVuSerif-70" x="1082.080078"/>
      <use xlink:href="#DejaVuSerif-6c" x="1146.09375"/>
      <use xlink:href="#DejaVuSerif-69" x="1178.076172"/>
      <use xlink:href="#DejaVuSerif-65" x="1210.058594"/>
      <use xlink:href="#DejaVuSerif-72" x="1269.238281"/>
     </g>
    </g>
   </g>
   <g id="matplotlib.axis_2">
    <g id="ytick_1">
     <g id="line2d_23">
      <path d="M 54.9875 163.652522 
L 201.615341 163.652522 
" clip-path="url(#pe048199266)" style="fill: none; stroke: #ffffff; stroke-linecap: round"/>
     </g>
     <g id="line2d_24"/>
     <g id="text_13">
      <!-- 0 -->
      <g transform="translate(41.625 167.45174) scale(0.1 -0.1)">
       <use xlink:href="#DejaVuSerif-30"/>
      </g>
     </g>
    </g>
    <g id="ytick_2">
     <g id="line2d_25">
      <path d="M 54.9875 134.942827 
L 201.615341 134.942827 
" clip-path="url(#pe048199266)" style="fill: none; stroke: #ffffff; stroke-linecap: round"/>
     </g>
     <g id="line2d_26"/>
     <g id="text_14">
      <!-- 20 -->
      <g transform="translate(35.2625 138.742045) scale(0.1 -0.1)">
       <use xlink:href="#DejaVuSerif-32"/>
       <use xlink:href="#DejaVuSerif-30" x="63.623047"/>
      </g>
     </g>
    </g>
    <g id="ytick_3">
     <g id="line2d_27">
      <path d="M 54.9875 106.233132 
L 201.615341 106.233132 
" clip-path="url(#pe048199266)" style="fill: none; stroke: #ffffff; stroke-linecap: round"/>
     </g>
     <g id="line2d_28"/>
     <g id="text_15">
      <!-- 40 -->
      <g transform="translate(35.2625 110.03235) scale(0.1 -0.1)">
       <use xlink:href="#DejaVuSerif-34"/>
       <use xlink:href="#DejaVuSerif-30" x="63.623047"/>
      </g>
     </g>
    </g>
    <g id="ytick_4">
     <g id="line2d_29">
      <path d="M 54.9875 77.523437 
L 201.615341 77.523437 
" clip-path="url(#pe048199266)" style="fill: none; stroke: #ffffff; stroke-linecap: round"/>
     </g>
     <g id="line2d_30"/>
     <g id="text_16">
      <!-- 60 -->
      <g transform="translate(35.2625 81.322655) scale(0.1 -0.1)">
       <defs>
        <path id="DejaVuSerif-36" d="M 2094 219 
Q 2534 219 2771 542 
Q 3009 866 3009 1472 
Q 3009 2078 2771 2401 
Q 2534 2725 2094 2725 
Q 1647 2725 1412 2412 
Q 1178 2100 1178 1509 
Q 1178 888 1415 553 
Q 1653 219 2094 219 
z
M 1075 2569 
Q 1288 2803 1556 2918 
Q 1825 3034 2163 3034 
Q 2859 3034 3264 2615 
Q 3669 2197 3669 1472 
Q 3669 763 3233 336 
Q 2797 -91 2069 -91 
Q 1278 -91 853 498 
Q 428 1088 428 2181 
Q 428 3406 931 4078 
Q 1434 4750 2350 4750 
Q 2597 4750 2869 4703 
Q 3141 4656 3425 4563 
L 3425 3794 
L 3072 3794 
Q 3034 4109 2831 4275 
Q 2628 4441 2284 4441 
Q 1678 4441 1381 3981 
Q 1084 3522 1075 2569 
z
" transform="scale(0.015625)"/>
       </defs>
       <use xlink:href="#DejaVuSerif-36"/>
       <use xlink:href="#DejaVuSerif-30" x="63.623047"/>
      </g>
     </g>
    </g>
    <g id="ytick_5">
     <g id="line2d_31">
      <path d="M 54.9875 48.813742 
L 201.615341 48.813742 
" clip-path="url(#pe048199266)" style="fill: none; stroke: #ffffff; stroke-linecap: round"/>
     </g>
     <g id="line2d_32"/>
     <g id="text_17">
      <!-- 80 -->
      <g transform="translate(35.2625 52.61296) scale(0.1 -0.1)">
       <defs>
        <path id="DejaVuSerif-38" d="M 2981 1275 
Q 2981 1775 2732 2051 
Q 2484 2328 2034 2328 
Q 1584 2328 1336 2051 
Q 1088 1775 1088 1275 
Q 1088 772 1336 495 
Q 1584 219 2034 219 
Q 2484 219 2732 495 
Q 2981 772 2981 1275 
z
M 2853 3541 
Q 2853 3966 2637 4203 
Q 2422 4441 2034 4441 
Q 1650 4441 1433 4203 
Q 1216 3966 1216 3541 
Q 1216 3113 1433 2875 
Q 1650 2638 2034 2638 
Q 2422 2638 2637 2875 
Q 2853 3113 2853 3541 
z
M 2516 2484 
Q 3047 2413 3344 2092 
Q 3641 1772 3641 1275 
Q 3641 619 3225 264 
Q 2809 -91 2034 -91 
Q 1263 -91 845 264 
Q 428 619 428 1275 
Q 428 1772 725 2092 
Q 1022 2413 1556 2484 
Q 1084 2569 832 2842 
Q 581 3116 581 3541 
Q 581 4103 968 4426 
Q 1356 4750 2034 4750 
Q 2713 4750 3100 4426 
Q 3488 4103 3488 3541 
Q 3488 3116 3236 2842 
Q 2984 2569 2516 2484 
z
" transform="scale(0.015625)"/>
       </defs>
       <use xlink:href="#DejaVuSerif-38"/>
       <use xlink:href="#DejaVuSerif-30" x="63.623047"/>
      </g>
     </g>
    </g>
    <g id="ytick_6">
     <g id="line2d_33">
      <path d="M 54.9875 20.104047 
L 201.615341 20.104047 
" clip-path="url(#pe048199266)" style="fill: none; stroke: #ffffff; stroke-linecap: round"/>
     </g>
     <g id="line2d_34"/>
     <g id="text_18">
      <!-- 100 -->
      <g transform="translate(28.9 23.903265) scale(0.1 -0.1)">
       <use xlink:href="#DejaVuSerif-31"/>
       <use xlink:href="#DejaVuSerif-30" x="63.623047"/>
       <use xlink:href="#DejaVuSerif-30" x="127.246094"/>
      </g>
     </g>
    </g>
    <g id="text_19">
     <!-- p(answer matching behavior) (%) -->
     <g transform="translate(22.455937 185.602344) rotate(-90) scale(0.11 -0.11)">
      <defs>
       <path id="DejaVuSerif-28" d="M 2041 -997 
Q 1281 -656 893 83 
Q 506 822 506 1931 
Q 506 3044 893 3783 
Q 1281 4522 2041 4863 
L 2041 4556 
Q 1559 4225 1350 3623 
Q 1141 3022 1141 1931 
Q 1141 844 1350 242 
Q 1559 -359 2041 -691 
L 2041 -997 
z
" transform="scale(0.015625)"/>
       <path id="DejaVuSerif-61" d="M 2547 1044 
L 2547 1747 
L 1806 1747 
Q 1378 1747 1168 1562 
Q 959 1378 959 997 
Q 959 650 1171 447 
Q 1384 244 1747 244 
Q 2106 244 2326 466 
Q 2547 688 2547 1044 
z
M 3122 2075 
L 3122 331 
L 3634 331 
L 3634 0 
L 2547 0 
L 2547 359 
Q 2356 128 2106 18 
Q 1856 -91 1522 -91 
Q 969 -91 644 203 
Q 319 497 319 997 
Q 319 1513 691 1797 
Q 1063 2081 1741 2081 
L 2547 2081 
L 2547 2309 
Q 2547 2688 2317 2895 
Q 2088 3103 1672 3103 
Q 1328 3103 1125 2947 
Q 922 2791 872 2484 
L 575 2484 
L 575 3156 
Q 875 3284 1158 3348 
Q 1441 3413 1709 3413 
Q 2400 3413 2761 3070 
Q 3122 2728 3122 2075 
z
" transform="scale(0.015625)"/>
       <path id="DejaVuSerif-73" d="M 359 184 
L 359 959 
L 691 959 
Q 703 588 923 403 
Q 1144 219 1575 219 
Q 1963 219 2166 364 
Q 2369 509 2369 788 
Q 2369 1006 2220 1140 
Q 2072 1275 1594 1428 
L 1178 1569 
Q 750 1706 558 1912 
Q 366 2119 366 2438 
Q 366 2894 700 3153 
Q 1034 3413 1625 3413 
Q 1888 3413 2178 3344 
Q 2469 3275 2778 3144 
L 2778 2419 
L 2447 2419 
Q 2434 2741 2221 2922 
Q 2009 3103 1644 3103 
Q 1281 3103 1095 2975 
Q 909 2847 909 2591 
Q 909 2381 1050 2254 
Q 1191 2128 1613 1997 
L 2069 1856 
Q 2541 1709 2748 1489 
Q 2956 1269 2956 922 
Q 2956 450 2595 179 
Q 2234 -91 1600 -91 
Q 1278 -91 972 -22 
Q 666 47 359 184 
z
" transform="scale(0.015625)"/>
       <path id="DejaVuSerif-77" d="M 3072 3322 
L 3922 728 
L 4672 2988 
L 4191 2988 
L 4191 3322 
L 5394 3322 
L 5394 2988 
L 5025 2988 
L 4038 0 
L 3559 0 
L 2741 2484 
L 1919 0 
L 1459 0 
L 475 2988 
L 103 2988 
L 103 3322 
L 1606 3322 
L 1606 2988 
L 1069 2988 
L 1813 728 
L 2669 3322 
L 3072 3322 
z
" transform="scale(0.015625)"/>
       <path id="DejaVuSerif-68" d="M 263 0 
L 263 331 
L 781 331 
L 781 4531 
L 231 4531 
L 231 4863 
L 1356 4863 
L 1356 2731 
Q 1516 3069 1770 3241 
Q 2025 3413 2363 3413 
Q 2913 3413 3172 3097 
Q 3431 2781 3431 2113 
L 3431 331 
L 3944 331 
L 3944 0 
L 2356 0 
L 2356 331 
L 2853 331 
L 2853 1931 
Q 2853 2541 2704 2764 
Q 2556 2988 2175 2988 
Q 1775 2988 1565 2697 
Q 1356 2406 1356 1850 
L 1356 331 
L 1856 331 
L 1856 0 
L 263 0 
z
" transform="scale(0.015625)"/>
       <path id="DejaVuSerif-62" d="M 738 331 
L 738 4531 
L 184 4531 
L 184 4863 
L 1313 4863 
L 1313 2803 
Q 1481 3116 1742 3264 
Q 2003 3413 2388 3413 
Q 3000 3413 3387 2928 
Q 3775 2444 3775 1663 
Q 3775 881 3387 395 
Q 3000 -91 2388 -91 
Q 2003 -91 1742 57 
Q 1481 206 1313 519 
L 1313 0 
L 184 0 
L 184 331 
L 738 331 
z
M 1313 1497 
Q 1313 897 1542 583 
Q 1772 269 2209 269 
Q 2650 269 2876 622 
Q 3103 975 3103 1663 
Q 3103 2353 2876 2703 
Q 2650 3053 2209 3053 
Q 1772 3053 1542 2737 
Q 1313 2422 1313 1825 
L 1313 1497 
z
" transform="scale(0.015625)"/>
       <path id="DejaVuSerif-29" d="M 453 -997 
L 453 -691 
Q 934 -359 1145 242 
Q 1356 844 1356 1931 
Q 1356 3022 1145 3623 
Q 934 4225 453 4556 
L 453 4863 
Q 1216 4522 1603 3783 
Q 1991 3044 1991 1931 
Q 1991 822 1603 83 
Q 1216 -656 453 -997 
z
" transform="scale(0.015625)"/>
       <path id="DejaVuSerif-25" d="M 1434 4459 
Q 1159 4459 1004 4200 
Q 850 3941 850 3475 
Q 850 3016 1008 2753 
Q 1166 2491 1434 2491 
Q 1700 2491 1854 2752 
Q 2009 3013 2009 3475 
Q 2009 3938 1854 4198 
Q 1700 4459 1434 4459 
z
M 4653 2169 
Q 4381 2169 4226 1906 
Q 4072 1644 4072 1178 
Q 4072 719 4228 458 
Q 4384 197 4653 197 
Q 4922 197 5075 458 
Q 5228 719 5228 1178 
Q 5228 1641 5073 1905 
Q 4919 2169 4653 2169 
z
M 4653 2450 
Q 5147 2450 5437 2106 
Q 5728 1763 5728 1178 
Q 5728 594 5436 251 
Q 5144 -91 4653 -91 
Q 4153 -91 3862 251 
Q 3572 594 3572 1178 
Q 3572 1766 3864 2108 
Q 4156 2450 4653 2450 
z
M 4263 4750 
L 4738 4750 
L 1819 -91 
L 1344 -91 
L 4263 4750 
z
M 1428 4750 
Q 1922 4750 2215 4408 
Q 2509 4066 2509 3481 
Q 2509 2891 2217 2550 
Q 1925 2209 1428 2209 
Q 931 2209 642 2551 
Q 353 2894 353 3481 
Q 353 4063 643 4406 
Q 934 4750 1428 4750 
z
" transform="scale(0.015625)"/>
      </defs>
      <use xlink:href="#DejaVuSerif-70"/>
      <use xlink:href="#DejaVuSerif-28" x="64.013672"/>
      <use xlink:href="#DejaVuSerif-61" x="103.027344"/>
      <use xlink:href="#DejaVuSerif-6e" x="162.646484"/>
      <use xlink:href="#DejaVuSerif-73" x="227.050781"/>
      <use xlink:href="#DejaVuSerif-77" x="278.369141"/>
      <use xlink:href="#DejaVuSerif-65" x="363.964844"/>
      <use xlink:href="#DejaVuSerif-72" x="423.144531"/>
      <use xlink:href="#DejaVuSerif-20" x="470.947266"/>
      <use xlink:href="#DejaVuSerif-6d" x="502.734375"/>
      <use xlink:href="#DejaVuSerif-61" x="597.558594"/>
      <use xlink:href="#DejaVuSerif-74" x="657.177734"/>
      <use xlink:href="#DejaVuSerif-63" x="697.363281"/>
      <use xlink:href="#DejaVuSerif-68" x="753.369141"/>
      <use xlink:href="#DejaVuSerif-69" x="817.773438"/>
      <use xlink:href="#DejaVuSerif-6e" x="849.755859"/>
      <use xlink:href="#DejaVuSerif-67" x="914.160156"/>
      <use xlink:href="#DejaVuSerif-20" x="978.173828"/>
      <use xlink:href="#DejaVuSerif-62" x="1009.960938"/>
      <use xlink:href="#DejaVuSerif-65" x="1073.974609"/>
      <use xlink:href="#DejaVuSerif-68" x="1133.154297"/>
      <use xlink:href="#DejaVuSerif-61" x="1197.558594"/>
      <use xlink:href="#DejaVuSerif-76" x="1257.177734"/>
      <use xlink:href="#DejaVuSerif-69" x="1313.671875"/>
      <use xlink:href="#DejaVuSerif-6f" x="1345.654297"/>
      <use xlink:href="#DejaVuSerif-72" x="1405.859375"/>
      <use xlink:href="#DejaVuSerif-29" x="1453.662109"/>
      <use xlink:href="#DejaVuSerif-20" x="1492.675781"/>
      <use xlink:href="#DejaVuSerif-28" x="1524.462891"/>
      <use xlink:href="#DejaVuSerif-25" x="1563.476562"/>
      <use xlink:href="#DejaVuSerif-29" x="1658.496094"/>
     </g>
    </g>
   </g>
   <g id="line2d_35">
    <path d="M 61.652402 119.760313 
L 74.982206 113.482424 
L 88.312009 94.930773 
L 101.641813 92.725427 
L 114.971617 108.909426 
L 128.30142 152.287751 
L 141.631224 123.06396 
L 154.961028 122.620081 
L 168.290832 126.163299 
L 181.620635 91.97607 
L 194.950439 66.991319 
" clip-path="url(#pe048199266)" style="fill: none; stroke: #377eb8; stroke-width: 3; stroke-linecap: round"/>
    <defs>
     <path id="mb4b02a526b" d="M 0 5 
C 1.326016 5 2.597899 4.473168 3.535534 3.535534 
C 4.473168 2.597899 5 1.326016 5 0 
C 5 -1.326016 4.473168 -2.597899 3.535534 -3.535534 
C 2.597899 -4.473168 1.326016 -5 0 -5 
C -1.326016 -5 -2.597899 -4.473168 -3.535534 -3.535534 
C -4.473168 -2.597899 -5 -1.326016 -5 0 
C -5 1.326016 -4.473168 2.597899 -3.535534 3.535534 
C -2.597899 4.473168 -1.326016 5 0 5 
z
"/>
    </defs>
    <g clip-path="url(#pe048199266)">
     <use xlink:href="#mb4b02a526b" x="61.652402" y="119.760313" style="fill: #377eb8"/>
     <use xlink:href="#mb4b02a526b" x="74.982206" y="113.482424" style="fill: #377eb8"/>
     <use xlink:href="#mb4b02a526b" x="88.312009" y="94.930773" style="fill: #377eb8"/>
     <use xlink:href="#mb4b02a526b" x="101.641813" y="92.725427" style="fill: #377eb8"/>
     <use xlink:href="#mb4b02a526b" x="114.971617" y="108.909426" style="fill: #377eb8"/>
     <use xlink:href="#mb4b02a526b" x="128.30142" y="152.287751" style="fill: #377eb8"/>
     <use xlink:href="#mb4b02a526b" x="141.631224" y="123.06396" style="fill: #377eb8"/>
     <use xlink:href="#mb4b02a526b" x="154.961028" y="122.620081" style="fill: #377eb8"/>
     <use xlink:href="#mb4b02a526b" x="168.290832" y="126.163299" style="fill: #377eb8"/>
     <use xlink:href="#mb4b02a526b" x="181.620635" y="91.97607" style="fill: #377eb8"/>
     <use xlink:href="#mb4b02a526b" x="194.950439" y="66.991319" style="fill: #377eb8"/>
    </g>
   </g>
   <g id="line2d_36">
    <path d="M 61.652402 163.058731 
L 74.982206 161.136284 
L 88.312009 120.072037 
L 101.641813 81.014857 
L 114.971617 109.123358 
L 128.30142 137.791933 
L 141.631224 55.976875 
L 154.961028 70.099331 
L 168.290832 63.252347 
L 181.620635 25.393613 
L 194.950439 21.14892 
" clip-path="url(#pe048199266)" style="fill: none; stroke: #ff7f00; stroke-width: 3; stroke-linecap: round"/>
    <defs>
     <path id="m95c861df57" d="M 0 5 
C 1.326016 5 2.597899 4.473168 3.535534 3.535534 
C 4.473168 2.597899 5 1.326016 5 0 
C 5 -1.326016 4.473168 -2.597899 3.535534 -3.535534 
C 2.597899 -4.473168 1.326016 -5 0 -5 
C -1.326016 -5 -2.597899 -4.473168 -3.535534 -3.535534 
C -4.473168 -2.597899 -5 -1.326016 -5 0 
C -5 1.326016 -4.473168 2.597899 -3.535534 3.535534 
C -2.597899 4.473168 -1.326016 5 0 5 
z
"/>
    </defs>
    <g clip-path="url(#pe048199266)">
     <use xlink:href="#m95c861df57" x="61.652402" y="163.058731" style="fill: #ff7f00"/>
     <use xlink:href="#m95c861df57" x="74.982206" y="161.136284" style="fill: #ff7f00"/>
     <use xlink:href="#m95c861df57" x="88.312009" y="120.072037" style="fill: #ff7f00"/>
     <use xlink:href="#m95c861df57" x="101.641813" y="81.014857" style="fill: #ff7f00"/>
     <use xlink:href="#m95c861df57" x="114.971617" y="109.123358" style="fill: #ff7f00"/>
     <use xlink:href="#m95c861df57" x="128.30142" y="137.791933" style="fill: #ff7f00"/>
     <use xlink:href="#m95c861df57" x="141.631224" y="55.976875" style="fill: #ff7f00"/>
     <use xlink:href="#m95c861df57" x="154.961028" y="70.099331" style="fill: #ff7f00"/>
     <use xlink:href="#m95c861df57" x="168.290832" y="63.252347" style="fill: #ff7f00"/>
     <use xlink:href="#m95c861df57" x="181.620635" y="25.393613" style="fill: #ff7f00"/>
     <use xlink:href="#m95c861df57" x="194.950439" y="21.14892" style="fill: #ff7f00"/>
    </g>
   </g>
   <g id="line2d_37">
    <path d="M 61.652402 120.480334 
L 74.982206 120.087622 
L 88.312009 107.105459 
L 101.641813 91.242372 
L 114.971617 149.934397 
L 128.30142 163.32733 
L 141.631224 98.246585 
L 154.961028 91.024601 
L 168.290832 85.47042 
L 181.620635 64.974734 
L 194.950439 63.412169 
" clip-path="url(#pe048199266)" style="fill: none; stroke: #4daf4a; stroke-width: 3; stroke-linecap: round"/>
    <defs>
     <path id="m6aa9ed2165" d="M 0 5 
C 1.326016 5 2.597899 4.473168 3.535534 3.535534 
C 4.473168 2.597899 5 1.326016 5 0 
C 5 -1.326016 4.473168 -2.597899 3.535534 -3.535534 
C 2.597899 -4.473168 1.326016 -5 0 -5 
C -1.326016 -5 -2.597899 -4.473168 -3.535534 -3.535534 
C -4.473168 -2.597899 -5 -1.326016 -5 0 
C -5 1.326016 -4.473168 2.597899 -3.535534 3.535534 
C -2.597899 4.473168 -1.326016 5 0 5 
z
"/>
    </defs>
    <g clip-path="url(#pe048199266)">
     <use xlink:href="#m6aa9ed2165" x="61.652402" y="120.480334" style="fill: #4daf4a"/>
     <use xlink:href="#m6aa9ed2165" x="74.982206" y="120.087622" style="fill: #4daf4a"/>
     <use xlink:href="#m6aa9ed2165" x="88.312009" y="107.105459" style="fill: #4daf4a"/>
     <use xlink:href="#m6aa9ed2165" x="101.641813" y="91.242372" style="fill: #4daf4a"/>
     <use xlink:href="#m6aa9ed2165" x="114.971617" y="149.934397" style="fill: #4daf4a"/>
     <use xlink:href="#m6aa9ed2165" x="128.30142" y="163.32733" style="fill: #4daf4a"/>
     <use xlink:href="#m6aa9ed2165" x="141.631224" y="98.246585" style="fill: #4daf4a"/>
     <use xlink:href="#m6aa9ed2165" x="154.961028" y="91.024601" style="fill: #4daf4a"/>
     <use xlink:href="#m6aa9ed2165" x="168.290832" y="85.47042" style="fill: #4daf4a"/>
     <use xlink:href="#m6aa9ed2165" x="181.620635" y="64.974734" style="fill: #4daf4a"/>
     <use xlink:href="#m6aa9ed2165" x="194.950439" y="63.412169" style="fill: #4daf4a"/>
    </g>
   </g>
   <g id="line2d_38">
    <path d="M 61.652402 134.393652 
L 74.982206 133.330589 
L 88.312009 116.49324 
L 101.641813 94.892419 
L 114.971617 129.153623 
L 128.30142 151.548956 
L 141.631224 76.268448 
L 154.961028 62.328249 
L 168.290832 65.796585 
L 181.620635 53.498941 
L 194.950439 50.89001 
" clip-path="url(#pe048199266)" style="fill: none; stroke: #f781bf; stroke-width: 3; stroke-linecap: round"/>
    <defs>
     <path id="m8bd0d8911f" d="M 0 5 
C 1.326016 5 2.597899 4.473168 3.535534 3.535534 
C 4.473168 2.597899 5 1.326016 5 0 
C 5 -1.326016 4.473168 -2.597899 3.535534 -3.535534 
C 2.597899 -4.473168 1.326016 -5 0 -5 
C -1.326016 -5 -2.597899 -4.473168 -3.535534 -3.535534 
C -4.473168 -2.597899 -5 -1.326016 -5 0 
C -5 1.326016 -4.473168 2.597899 -3.535534 3.535534 
C -2.597899 4.473168 -1.326016 5 0 5 
z
"/>
    </defs>
    <g clip-path="url(#pe048199266)">
     <use xlink:href="#m8bd0d8911f" x="61.652402" y="134.393652" style="fill: #f781bf"/>
     <use xlink:href="#m8bd0d8911f" x="74.982206" y="133.330589" style="fill: #f781bf"/>
     <use xlink:href="#m8bd0d8911f" x="88.312009" y="116.49324" style="fill: #f781bf"/>
     <use xlink:href="#m8bd0d8911f" x="101.641813" y="94.892419" style="fill: #f781bf"/>
     <use xlink:href="#m8bd0d8911f" x="114.971617" y="129.153623" style="fill: #f781bf"/>
     <use xlink:href="#m8bd0d8911f" x="128.30142" y="151.548956" style="fill: #f781bf"/>
     <use xlink:href="#m8bd0d8911f" x="141.631224" y="76.268448" style="fill: #f781bf"/>
     <use xlink:href="#m8bd0d8911f" x="154.961028" y="62.328249" style="fill: #f781bf"/>
     <use xlink:href="#m8bd0d8911f" x="168.290832" y="65.796585" style="fill: #f781bf"/>
     <use xlink:href="#m8bd0d8911f" x="181.620635" y="53.498941" style="fill: #f781bf"/>
     <use xlink:href="#m8bd0d8911f" x="194.950439" y="50.89001" style="fill: #f781bf"/>
    </g>
   </g>
   <g id="line2d_39">
    <path d="M 61.652402 59.252396 
L 74.982206 50.937859 
L 88.312009 36.127317 
L 101.641813 34.814295 
L 114.971617 60.550596 
L 128.30142 157.759631 
L 141.631224 110.758614 
L 154.961028 53.883895 
L 168.290832 99.366656 
L 181.620635 119.925658 
L 194.950439 120.332804 
" clip-path="url(#pe048199266)" style="fill: none; stroke: #a65628; stroke-width: 3; stroke-linecap: round"/>
    <defs>
     <path id="m26bf2d15cb" d="M 0 5 
C 1.326016 5 2.597899 4.473168 3.535534 3.535534 
C 4.473168 2.597899 5 1.326016 5 0 
C 5 -1.326016 4.473168 -2.597899 3.535534 -3.535534 
C 2.597899 -4.473168 1.326016 -5 0 -5 
C -1.326016 -5 -2.597899 -4.473168 -3.535534 -3.535534 
C -4.473168 -2.597899 -5 -1.326016 -5 0 
C -5 1.326016 -4.473168 2.597899 -3.535534 3.535534 
C -2.597899 4.473168 -1.326016 5 0 5 
z
"/>
    </defs>
    <g clip-path="url(#pe048199266)">
     <use xlink:href="#m26bf2d15cb" x="61.652402" y="59.252396" style="fill: #a65628"/>
     <use xlink:href="#m26bf2d15cb" x="74.982206" y="50.937859" style="fill: #a65628"/>
     <use xlink:href="#m26bf2d15cb" x="88.312009" y="36.127317" style="fill: #a65628"/>
     <use xlink:href="#m26bf2d15cb" x="101.641813" y="34.814295" style="fill: #a65628"/>
     <use xlink:href="#m26bf2d15cb" x="114.971617" y="60.550596" style="fill: #a65628"/>
     <use xlink:href="#m26bf2d15cb" x="128.30142" y="157.759631" style="fill: #a65628"/>
     <use xlink:href="#m26bf2d15cb" x="141.631224" y="110.758614" style="fill: #a65628"/>
     <use xlink:href="#m26bf2d15cb" x="154.961028" y="53.883895" style="fill: #a65628"/>
     <use xlink:href="#m26bf2d15cb" x="168.290832" y="99.366656" style="fill: #a65628"/>
     <use xlink:href="#m26bf2d15cb" x="181.620635" y="119.925658" style="fill: #a65628"/>
     <use xlink:href="#m26bf2d15cb" x="194.950439" y="120.332804" style="fill: #a65628"/>
    </g>
   </g>
   <g id="line2d_40">
    <path d="M 61.652402 91.871438 
L 74.982206 91.859494 
L 88.312009 91.854105 
L 101.641813 91.834972 
L 114.971617 92.12229 
L 128.30142 158.057222 
L 141.631224 117.77455 
L 154.961028 91.566063 
L 168.290832 116.203986 
L 181.620635 96.44416 
L 194.950439 92.77394 
" clip-path="url(#pe048199266)" style="fill: none; stroke: #984ea3; stroke-width: 3; stroke-linecap: round"/>
    <defs>
     <path id="mdd09a88b2e" d="M 0 5 
C 1.326016 5 2.597899 4.473168 3.535534 3.535534 
C 4.473168 2.597899 5 1.326016 5 0 
C 5 -1.326016 4.473168 -2.597899 3.535534 -3.535534 
C 2.597899 -4.473168 1.326016 -5 0 -5 
C -1.326016 -5 -2.597899 -4.473168 -3.535534 -3.535534 
C -4.473168 -2.597899 -5 -1.326016 -5 0 
C -5 1.326016 -4.473168 2.597899 -3.535534 3.535534 
C -2.597899 4.473168 -1.326016 5 0 5 
z
"/>
    </defs>
    <g clip-path="url(#pe048199266)">
     <use xlink:href="#mdd09a88b2e" x="61.652402" y="91.871438" style="fill: #984ea3"/>
     <use xlink:href="#mdd09a88b2e" x="74.982206" y="91.859494" style="fill: #984ea3"/>
     <use xlink:href="#mdd09a88b2e" x="88.312009" y="91.854105" style="fill: #984ea3"/>
     <use xlink:href="#mdd09a88b2e" x="101.641813" y="91.834972" style="fill: #984ea3"/>
     <use xlink:href="#mdd09a88b2e" x="114.971617" y="92.12229" style="fill: #984ea3"/>
     <use xlink:href="#mdd09a88b2e" x="128.30142" y="158.057222" style="fill: #984ea3"/>
     <use xlink:href="#mdd09a88b2e" x="141.631224" y="117.77455" style="fill: #984ea3"/>
     <use xlink:href="#mdd09a88b2e" x="154.961028" y="91.566063" style="fill: #984ea3"/>
     <use xlink:href="#mdd09a88b2e" x="168.290832" y="116.203986" style="fill: #984ea3"/>
     <use xlink:href="#mdd09a88b2e" x="181.620635" y="96.44416" style="fill: #984ea3"/>
     <use xlink:href="#mdd09a88b2e" x="194.950439" y="92.77394" style="fill: #984ea3"/>
    </g>
   </g>
   <g id="line2d_41">
    <path d="M 61.652402 148.587464 
L 74.982206 147.036497 
L 88.312009 126.884272 
L 101.641813 108.199735 
L 114.971617 135.036499 
L 128.30142 160.745201 
L 141.631224 104.394311 
L 154.961028 117.697149 
L 168.290832 114.997994 
L 181.620635 75.081849 
L 194.950439 45.373883 
" clip-path="url(#pe048199266)" style="fill: none; stroke: #999999; stroke-width: 3; stroke-linecap: round"/>
    <defs>
     <path id="me6eea534c4" d="M 0 5 
C 1.326016 5 2.597899 4.473168 3.535534 3.535534 
C 4.473168 2.597899 5 1.326016 5 0 
C 5 -1.326016 4.473168 -2.597899 3.535534 -3.535534 
C 2.597899 -4.473168 1.326016 -5 0 -5 
C -1.326016 -5 -2.597899 -4.473168 -3.535534 -3.535534 
C -4.473168 -2.597899 -5 -1.326016 -5 0 
C -5 1.326016 -4.473168 2.597899 -3.535534 3.535534 
C -2.597899 4.473168 -1.326016 5 0 5 
z
"/>
    </defs>
    <g clip-path="url(#pe048199266)">
     <use xlink:href="#me6eea534c4" x="61.652402" y="148.587464" style="fill: #999999"/>
     <use xlink:href="#me6eea534c4" x="74.982206" y="147.036497" style="fill: #999999"/>
     <use xlink:href="#me6eea534c4" x="88.312009" y="126.884272" style="fill: #999999"/>
     <use xlink:href="#me6eea534c4" x="101.641813" y="108.199735" style="fill: #999999"/>
     <use xlink:href="#me6eea534c4" x="114.971617" y="135.036499" style="fill: #999999"/>
     <use xlink:href="#me6eea534c4" x="128.30142" y="160.745201" style="fill: #999999"/>
     <use xlink:href="#me6eea534c4" x="141.631224" y="104.394311" style="fill: #999999"/>
     <use xlink:href="#me6eea534c4" x="154.961028" y="117.697149" style="fill: #999999"/>
     <use xlink:href="#me6eea534c4" x="168.290832" y="114.997994" style="fill: #999999"/>
     <use xlink:href="#me6eea534c4" x="181.620635" y="75.081849" style="fill: #999999"/>
     <use xlink:href="#me6eea534c4" x="194.950439" y="45.373883" style="fill: #999999"/>
    </g>
   </g>
   <g id="patch_3">
    <path d="M 54.9875 170.43625 
L 54.9875 14.04 
" style="fill: none"/>
   </g>
   <g id="patch_4">
    <path d="M 201.615341 170.43625 
L 201.615341 14.04 
" style="fill: none"/>
   </g>
   <g id="patch_5">
    <path d="M 54.9875 170.43625 
L 201.615341 170.43625 
" style="fill: none"/>
   </g>
   <g id="patch_6">
    <path d="M 54.9875 14.04 
L 201.615341 14.04 
" style="fill: none"/>
   </g>
   <g id="legend_1">
    <g id="line2d_42">
     <path d="M 55.502841 27.138438 
L 65.502841 27.138438 
L 75.502841 27.138438 
" style="fill: none; stroke: #377eb8; stroke-width: 3; stroke-linecap: round"/>
     <g>
      <use xlink:href="#mb4b02a526b" x="65.502841" y="27.138438" style="fill: #377eb8"/>
     </g>
    </g>
    <g id="text_20">
     <!-- Envy-Kindness -->
     <g style="fill: #262626" transform="translate(83.502841 30.638438) scale(0.1 -0.1)">
      <defs>
       <path id="DejaVuSerif-45" d="M 353 0 
L 353 331 
L 947 331 
L 947 4331 
L 353 4331 
L 353 4666 
L 4109 4666 
L 4109 3628 
L 3725 3628 
L 3725 4281 
L 1581 4281 
L 1581 2719 
L 3109 2719 
L 3109 3303 
L 3494 3303 
L 3494 1753 
L 3109 1753 
L 3109 2338 
L 1581 2338 
L 1581 384 
L 3775 384 
L 3775 1038 
L 4159 1038 
L 4159 0 
L 353 0 
z
" transform="scale(0.015625)"/>
       <path id="DejaVuSerif-79" d="M 1381 -609 
L 1600 -56 
L 359 2988 
L -19 2988 
L -19 3322 
L 1509 3322 
L 1509 2988 
L 978 2988 
L 1913 703 
L 2847 2988 
L 2350 2988 
L 2350 3322 
L 3597 3322 
L 3597 2988 
L 3225 2988 
L 1703 -750 
Q 1547 -1138 1356 -1280 
Q 1166 -1422 819 -1422 
Q 672 -1422 517 -1397 
Q 363 -1372 206 -1325 
L 206 -691 
L 500 -691 
Q 519 -903 608 -995 
Q 697 -1088 884 -1088 
Q 1056 -1088 1161 -992 
Q 1266 -897 1381 -609 
z
" transform="scale(0.015625)"/>
       <path id="DejaVuSerif-4b" d="M 353 0 
L 353 331 
L 947 331 
L 947 4331 
L 353 4331 
L 353 4666 
L 2175 4666 
L 2175 4331 
L 1581 4331 
L 1581 2566 
L 3591 4331 
L 3084 4331 
L 3084 4666 
L 4634 4666 
L 4634 4331 
L 4109 4331 
L 2106 2572 
L 4347 331 
L 4878 331 
L 4878 0 
L 3794 0 
L 1581 2216 
L 1581 331 
L 2175 331 
L 2175 0 
L 353 0 
z
" transform="scale(0.015625)"/>
       <path id="DejaVuSerif-64" d="M 3359 331 
L 3909 331 
L 3909 0 
L 2784 0 
L 2784 519 
Q 2616 206 2355 57 
Q 2094 -91 1709 -91 
Q 1097 -91 708 395 
Q 319 881 319 1663 
Q 319 2444 706 2928 
Q 1094 3413 1709 3413 
Q 2094 3413 2355 3264 
Q 2616 3116 2784 2803 
L 2784 4531 
L 2241 4531 
L 2241 4863 
L 3359 4863 
L 3359 331 
z
M 2784 1497 
L 2784 1825 
Q 2784 2422 2554 2737 
Q 2325 3053 1888 3053 
Q 1444 3053 1217 2703 
Q 991 2353 991 1663 
Q 991 975 1217 622 
Q 1444 269 1888 269 
Q 2325 269 2554 583 
Q 2784 897 2784 1497 
z
" transform="scale(0.015625)"/>
      </defs>
      <use xlink:href="#DejaVuSerif-45"/>
      <use xlink:href="#DejaVuSerif-6e" x="72.998047"/>
      <use xlink:href="#DejaVuSerif-76" x="137.402344"/>
      <use xlink:href="#DejaVuSerif-79" x="193.896484"/>
      <use xlink:href="#DejaVuSerif-2d" x="250.390625"/>
      <use xlink:href="#DejaVuSerif-4b" x="284.179688"/>
      <use xlink:href="#DejaVuSerif-69" x="358.886719"/>
      <use xlink:href="#DejaVuSerif-6e" x="390.869141"/>
      <use xlink:href="#DejaVuSerif-64" x="455.273438"/>
      <use xlink:href="#DejaVuSerif-6e" x="519.287109"/>
      <use xlink:href="#DejaVuSerif-65" x="583.691406"/>
      <use xlink:href="#DejaVuSerif-73" x="642.871094"/>
      <use xlink:href="#DejaVuSerif-73" x="694.189453"/>
     </g>
    </g>
    <g id="line2d_43">
     <path d="M 55.502841 41.95875 
L 65.502841 41.95875 
L 75.502841 41.95875 
" style="fill: none; stroke: #ff7f00; stroke-width: 3; stroke-linecap: round"/>
     <g>
      <use xlink:href="#m95c861df57" x="65.502841" y="41.95875" style="fill: #ff7f00"/>
     </g>
    </g>
    <g id="text_21">
     <!-- Gluttony-Temperance -->
     <g style="fill: #262626" transform="translate(83.502841 45.45875) scale(0.1 -0.1)">
      <defs>
       <path id="DejaVuSerif-47" d="M 4097 3272 
Q 3988 3856 3641 4136 
Q 3294 4416 2675 4416 
Q 1869 4416 1472 3897 
Q 1075 3378 1075 2328 
Q 1075 1300 1484 772 
Q 1894 244 2688 244 
Q 3041 244 3362 331 
Q 3684 419 3975 594 
L 3975 1797 
L 3097 1797 
L 3097 2131 
L 4609 2131 
L 4609 391 
Q 4194 150 3714 29 
Q 3234 -91 2688 -91 
Q 1631 -91 995 570 
Q 359 1231 359 2328 
Q 359 3434 996 4092 
Q 1634 4750 2713 4750 
Q 3113 4750 3539 4658 
Q 3966 4566 4447 4378 
L 4447 3272 
L 4097 3272 
z
" transform="scale(0.015625)"/>
       <path id="DejaVuSerif-54" d="M 1222 0 
L 1222 331 
L 1819 331 
L 1819 4294 
L 447 4294 
L 447 3566 
L 63 3566 
L 63 4666 
L 4206 4666 
L 4206 3566 
L 3822 3566 
L 3822 4294 
L 2450 4294 
L 2450 331 
L 3047 331 
L 3047 0 
L 1222 0 
z
" transform="scale(0.015625)"/>
      </defs>
      <use xlink:href="#DejaVuSerif-47"/>
      <use xlink:href="#DejaVuSerif-6c" x="79.882812"/>
      <use xlink:href="#DejaVuSerif-75" x="111.865234"/>
      <use xlink:href="#DejaVuSerif-74" x="176.269531"/>
      <use xlink:href="#DejaVuSerif-74" x="216.455078"/>
      <use xlink:href="#DejaVuSerif-6f" x="256.640625"/>
      <use xlink:href="#DejaVuSerif-6e" x="316.845703"/>
      <use xlink:href="#DejaVuSerif-79" x="381.25"/>
      <use xlink:href="#DejaVuSerif-2d" x="437.744141"/>
      <use xlink:href="#DejaVuSerif-54" x="467.908203"/>
      <use xlink:href="#DejaVuSerif-65" x="526.857422"/>
      <use xlink:href="#DejaVuSerif-6d" x="586.037109"/>
      <use xlink:href="#DejaVuSerif-70" x="680.861328"/>
      <use xlink:href="#DejaVuSerif-65" x="744.875"/>
      <use xlink:href="#DejaVuSerif-72" x="804.054688"/>
      <use xlink:href="#DejaVuSerif-61" x="851.857422"/>
      <use xlink:href="#DejaVuSerif-6e" x="911.476562"/>
      <use xlink:href="#DejaVuSerif-63" x="975.880859"/>
      <use xlink:href="#DejaVuSerif-65" x="1031.886719"/>
     </g>
    </g>
    <g id="line2d_44">
     <path d="M 55.502841 56.779063 
L 65.502841 56.779063 
L 75.502841 56.779063 
" style="fill: none; stroke: #4daf4a; stroke-width: 3; stroke-linecap: round"/>
     <g>
      <use xlink:href="#m6aa9ed2165" x="65.502841" y="56.779063" style="fill: #4daf4a"/>
     </g>
    </g>
    <g id="text_22">
     <!-- Greed-Charity -->
     <g style="fill: #262626" transform="translate(83.502841 60.279063) scale(0.1 -0.1)">
      <defs>
       <path id="DejaVuSerif-43" d="M 4513 1234 
Q 4306 581 3820 245 
Q 3334 -91 2591 -91 
Q 2134 -91 1743 65 
Q 1353 222 1050 525 
Q 700 875 529 1320 
Q 359 1766 359 2328 
Q 359 3416 987 4083 
Q 1616 4750 2644 4750 
Q 3025 4750 3456 4650 
Q 3888 4550 4384 4347 
L 4384 3272 
L 4031 3272 
Q 3916 3859 3567 4137 
Q 3219 4416 2591 4416 
Q 1844 4416 1459 3886 
Q 1075 3356 1075 2328 
Q 1075 1303 1459 773 
Q 1844 244 2591 244 
Q 3113 244 3450 492 
Q 3788 741 3938 1234 
L 4513 1234 
z
" transform="scale(0.015625)"/>
      </defs>
      <use xlink:href="#DejaVuSerif-47"/>
      <use xlink:href="#DejaVuSerif-72" x="79.882812"/>
      <use xlink:href="#DejaVuSerif-65" x="127.685547"/>
      <use xlink:href="#DejaVuSerif-65" x="186.865234"/>
      <use xlink:href="#DejaVuSerif-64" x="246.044922"/>
      <use xlink:href="#DejaVuSerif-2d" x="310.058594"/>
      <use xlink:href="#DejaVuSerif-43" x="343.847656"/>
      <use xlink:href="#DejaVuSerif-68" x="420.361328"/>
      <use xlink:href="#DejaVuSerif-61" x="484.765625"/>
      <use xlink:href="#DejaVuSerif-72" x="544.384766"/>
      <use xlink:href="#DejaVuSerif-69" x="592.1875"/>
      <use xlink:href="#DejaVuSerif-74" x="624.169922"/>
      <use xlink:href="#DejaVuSerif-79" x="664.355469"/>
     </g>
    </g>
    <g id="line2d_45">
     <path d="M 55.502841 71.599375 
L 65.502841 71.599375 
L 75.502841 71.599375 
" style="fill: none; stroke: #f781bf; stroke-width: 3; stroke-linecap: round"/>
     <g>
      <use xlink:href="#m8bd0d8911f" x="65.502841" y="71.599375" style="fill: #f781bf"/>
     </g>
    </g>
    <g id="text_23">
     <!-- Lust-Chastity -->
     <g style="fill: #262626" transform="translate(83.502841 75.099375) scale(0.1 -0.1)">
      <defs>
       <path id="DejaVuSerif-4c" d="M 353 0 
L 353 331 
L 947 331 
L 947 4331 
L 353 4331 
L 353 4666 
L 2175 4666 
L 2175 4331 
L 1581 4331 
L 1581 384 
L 3713 384 
L 3713 1166 
L 4097 1166 
L 4097 0 
L 353 0 
z
" transform="scale(0.015625)"/>
      </defs>
      <use xlink:href="#DejaVuSerif-4c"/>
      <use xlink:href="#DejaVuSerif-75" x="66.40625"/>
      <use xlink:href="#DejaVuSerif-73" x="130.810547"/>
      <use xlink:href="#DejaVuSerif-74" x="182.128906"/>
      <use xlink:href="#DejaVuSerif-2d" x="222.314453"/>
      <use xlink:href="#DejaVuSerif-43" x="256.103516"/>
      <use xlink:href="#DejaVuSerif-68" x="332.617188"/>
      <use xlink:href="#DejaVuSerif-61" x="397.021484"/>
      <use xlink:href="#DejaVuSerif-73" x="456.640625"/>
      <use xlink:href="#DejaVuSerif-74" x="507.958984"/>
      <use xlink:href="#DejaVuSerif-69" x="548.144531"/>
      <use xlink:href="#DejaVuSerif-74" x="580.126953"/>
      <use xlink:href="#DejaVuSerif-79" x="620.3125"/>
     </g>
    </g>
    <g id="line2d_46">
     <path d="M 55.502841 86.419688 
L 65.502841 86.419688 
L 75.502841 86.419688 
" style="fill: none; stroke: #a65628; stroke-width: 3; stroke-linecap: round"/>
     <g>
      <use xlink:href="#m26bf2d15cb" x="65.502841" y="86.419688" style="fill: #a65628"/>
     </g>
    </g>
    <g id="text_24">
     <!-- Pride-Humility -->
     <g style="fill: #262626" transform="translate(83.502841 89.919688) scale(0.1 -0.1)">
      <defs>
       <path id="DejaVuSerif-50" d="M 1581 2375 
L 2406 2375 
Q 2872 2375 3115 2626 
Q 3359 2878 3359 3353 
Q 3359 3831 3115 4081 
Q 2872 4331 2406 4331 
L 1581 4331 
L 1581 2375 
z
M 353 0 
L 353 331 
L 947 331 
L 947 4331 
L 353 4331 
L 353 4666 
L 2559 4666 
Q 3259 4666 3668 4311 
Q 4078 3956 4078 3353 
Q 4078 2753 3668 2397 
Q 3259 2041 2559 2041 
L 1581 2041 
L 1581 331 
L 2303 331 
L 2303 0 
L 353 0 
z
" transform="scale(0.015625)"/>
       <path id="DejaVuSerif-48" d="M 353 0 
L 353 331 
L 947 331 
L 947 4331 
L 353 4331 
L 353 4666 
L 2175 4666 
L 2175 4331 
L 1581 4331 
L 1581 2719 
L 4000 2719 
L 4000 4331 
L 3406 4331 
L 3406 4666 
L 5228 4666 
L 5228 4331 
L 4634 4331 
L 4634 331 
L 5228 331 
L 5228 0 
L 3406 0 
L 3406 331 
L 4000 331 
L 4000 2338 
L 1581 2338 
L 1581 331 
L 2175 331 
L 2175 0 
L 353 0 
z
" transform="scale(0.015625)"/>
      </defs>
      <use xlink:href="#DejaVuSerif-50"/>
      <use xlink:href="#DejaVuSerif-72" x="67.285156"/>
      <use xlink:href="#DejaVuSerif-69" x="115.087891"/>
      <use xlink:href="#DejaVuSerif-64" x="147.070312"/>
      <use xlink:href="#DejaVuSerif-65" x="211.083984"/>
      <use xlink:href="#DejaVuSerif-2d" x="270.263672"/>
      <use xlink:href="#DejaVuSerif-48" x="304.052734"/>
      <use xlink:href="#DejaVuSerif-75" x="391.259766"/>
      <use xlink:href="#DejaVuSerif-6d" x="455.664062"/>
      <use xlink:href="#DejaVuSerif-69" x="550.488281"/>
      <use xlink:href="#DejaVuSerif-6c" x="582.470703"/>
      <use xlink:href="#DejaVuSerif-69" x="614.453125"/>
      <use xlink:href="#DejaVuSerif-74" x="646.435547"/>
      <use xlink:href="#DejaVuSerif-79" x="686.621094"/>
     </g>
    </g>
    <g id="line2d_47">
     <path d="M 55.502841 101.24 
L 65.502841 101.24 
L 75.502841 101.24 
" style="fill: none; stroke: #984ea3; stroke-width: 3; stroke-linecap: round"/>
     <g>
      <use xlink:href="#mdd09a88b2e" x="65.502841" y="101.24" style="fill: #984ea3"/>
     </g>
    </g>
    <g id="text_25">
     <!-- Sloth-Diligence -->
     <g style="fill: #262626" transform="translate(83.502841 104.74) scale(0.1 -0.1)">
      <defs>
       <path id="DejaVuSerif-44" d="M 1581 331 
L 2163 331 
Q 3072 331 3558 850 
Q 4044 1369 4044 2338 
Q 4044 3306 3559 3818 
Q 3075 4331 2163 4331 
L 1581 4331 
L 1581 331 
z
M 353 0 
L 353 331 
L 947 331 
L 947 4331 
L 353 4331 
L 353 4666 
L 2209 4666 
Q 3416 4666 4089 4050 
Q 4763 3434 4763 2338 
Q 4763 1238 4088 619 
Q 3413 0 2209 0 
L 353 0 
z
" transform="scale(0.015625)"/>
      </defs>
      <use xlink:href="#DejaVuSerif-53"/>
      <use xlink:href="#DejaVuSerif-6c" x="68.505859"/>
      <use xlink:href="#DejaVuSerif-6f" x="100.488281"/>
      <use xlink:href="#DejaVuSerif-74" x="160.693359"/>
      <use xlink:href="#DejaVuSerif-68" x="200.878906"/>
      <use xlink:href="#DejaVuSerif-2d" x="265.283203"/>
      <use xlink:href="#DejaVuSerif-44" x="299.072266"/>
      <use xlink:href="#DejaVuSerif-69" x="379.248047"/>
      <use xlink:href="#DejaVuSerif-6c" x="411.230469"/>
      <use xlink:href="#DejaVuSerif-69" x="443.212891"/>
      <use xlink:href="#DejaVuSerif-67" x="475.195312"/>
      <use xlink:href="#DejaVuSerif-65" x="539.208984"/>
      <use xlink:href="#DejaVuSerif-6e" x="598.388672"/>
      <use xlink:href="#DejaVuSerif-63" x="662.792969"/>
      <use xlink:href="#DejaVuSerif-65" x="718.798828"/>
     </g>
    </g>
    <g id="line2d_48">
     <path d="M 55.502841 116.060313 
L 65.502841 116.060313 
L 75.502841 116.060313 
" style="fill: none; stroke: #999999; stroke-width: 3; stroke-linecap: round"/>
     <g>
      <use xlink:href="#me6eea534c4" x="65.502841" y="116.060313" style="fill: #999999"/>
     </g>
    </g>
    <g id="text_26">
     <!-- Wrath-Patience -->
     <g style="fill: #262626" transform="translate(83.502841 119.560313) scale(0.1 -0.1)">
      <defs>
       <path id="DejaVuSerif-57" d="M 4878 0 
L 4366 0 
L 3297 3794 
L 2228 0 
L 1716 0 
L 494 4331 
L 31 4331 
L 31 4666 
L 1734 4666 
L 1734 4331 
L 1153 4331 
L 2125 884 
L 3188 4666 
L 3694 4666 
L 4775 844 
L 5753 4331 
L 5216 4331 
L 5216 4666 
L 6559 4666 
L 6559 4331 
L 6100 4331 
L 4878 0 
z
" transform="scale(0.015625)"/>
      </defs>
      <use xlink:href="#DejaVuSerif-57"/>
      <use xlink:href="#DejaVuSerif-72" x="98.283203"/>
      <use xlink:href="#DejaVuSerif-61" x="146.085938"/>
      <use xlink:href="#DejaVuSerif-74" x="205.705078"/>
      <use xlink:href="#DejaVuSerif-68" x="245.890625"/>
      <use xlink:href="#DejaVuSerif-2d" x="310.294922"/>
      <use xlink:href="#DejaVuSerif-50" x="344.083984"/>
      <use xlink:href="#DejaVuSerif-61" x="406.869141"/>
      <use xlink:href="#DejaVuSerif-74" x="466.488281"/>
      <use xlink:href="#DejaVuSerif-69" x="506.673828"/>
      <use xlink:href="#DejaVuSerif-65" x="538.65625"/>
      <use xlink:href="#DejaVuSerif-6e" x="597.835938"/>
      <use xlink:href="#DejaVuSerif-63" x="662.240234"/>
      <use xlink:href="#DejaVuSerif-65" x="718.246094"/>
     </g>
    </g>
   </g>
  </g>
 </g>
 <defs>
  <clipPath id="pe048199266">
   <rect x="54.9875" y="14.04" width="146.627841" height="156.39625"/>
  </clipPath>
 </defs>
</svg>
